/* XPM */
static char * D:\Crypto\001_NIX_COIN\NYX Photo\NYX Photo_V3\pixmaps\nyx16_xpm[] = {
"16 16 209 2",
"  	c #FFFFFF",
". 	c #FFFFFD",
"+ 	c #FEFFFF",
"@ 	c #FEFEFE",
"# 	c #D5E6EE",
"$ 	c #8DC4E3",
"% 	c #6AB5DF",
"& 	c #6AB5DC",
"* 	c #8DC4E2",
"= 	c #D2E6EF",
"- 	c #FEFEFC",
"; 	c #FFFEFF",
"> 	c #FEFEFF",
", 	c #DFEEF3",
"' 	c #5EB1DB",
") 	c #6AB9E0",
"! 	c #8DC3DD",
"~ 	c #94C3DD",
"{ 	c #93C5DE",
"] 	c #90C7E6",
"^ 	c #76BBE4",
"/ 	c #64AFD7",
"( 	c #DBEEF2",
"_ 	c #FEFFFD",
": 	c #FBFFFF",
"< 	c #FFFDFF",
"[ 	c #C3DEEF",
"} 	c #40AADA",
"| 	c #A8CEE5",
"1 	c #6FA1BC",
"2 	c #1D83B4",
"3 	c #007FC0",
"4 	c #0082C3",
"5 	c #158DCC",
"6 	c #5FB2DC",
"7 	c #A6D3EA",
"8 	c #59A7CE",
"9 	c #C2DCE9",
"0 	c #E1F0F5",
"a 	c #3EA7DE",
"b 	c #B0CED9",
"c 	c #2477A3",
"d 	c #0182C6",
"e 	c #44AADB",
"f 	c #47A5D8",
"g 	c #42A4D3",
"h 	c #49ABDA",
"i 	c #078BCB",
"j 	c #1994D7",
"k 	c #55A2CC",
"l 	c #0980B8",
"m 	c #E3F0F6",
"n 	c #53ABDB",
"o 	c #A1CEE5",
"p 	c #2677A2",
"q 	c #138DCE",
"r 	c #57B2E1",
"s 	c #5E9ABE",
"t 	c #2687BC",
"u 	c #479FCD",
"v 	c #DBDFE2",
"w 	c #317396",
"x 	c #0087CB",
"y 	c #0085CE",
"z 	c #0084CF",
"A 	c #46A5D3",
"B 	c #D7E8F2",
"C 	c #59B6E2",
"D 	c #7FA5B8",
"E 	c #0073B6",
"F 	c #1393D4",
"G 	c #8BC8E5",
"H 	c #6DA6C4",
"I 	c #0C88CE",
"J 	c #99CBE2",
"K 	c #6795AC",
"L 	c #3182AD",
"M 	c #0085CC",
"N 	c #0089CD",
"O 	c #038ACE",
"P 	c #0289CD",
"Q 	c #D8E9F1",
"R 	c #82C3E1",
"S 	c #87C4E3",
"T 	c #3782AA",
"U 	c #0185CD",
"V 	c #2A9ED9",
"W 	c #78B0CB",
"X 	c #B5D8EB",
"Y 	c #6E9DB7",
"Z 	c #1C8DC7",
"` 	c #4291BC",
" .	c #0181CA",
"..	c #018BCC",
"+.	c #0089CE",
"@.	c #8BC4E1",
"#.	c #5EAFDA",
"$.	c #91C5DD",
"%.	c #1878AB",
"&.	c #018CD1",
"*.	c #0088C9",
"=.	c #35A3D6",
"-.	c #3189B7",
";.	c #8EC4DE",
">.	c #75ABC5",
",.	c #81C8E8",
"'.	c #3A8CB2",
").	c #0184CA",
"!.	c #008BCD",
"~.	c #008BCE",
"{.	c #0084CC",
"].	c #5AAFD8",
"^.	c #5DB0D8",
"/.	c #93C2DE",
"(.	c #1A7BAE",
"_.	c #008ACF",
":.	c #34A3DB",
"<.	c #3890B8",
"[.	c #88BED8",
"}.	c #0F78A8",
"|.	c #54B4E4",
"1.	c #93BBD5",
"2.	c #0E82BF",
"3.	c #008BD0",
"4.	c #5AAEDA",
"5.	c #83C3DF",
"6.	c #83C3E6",
"7.	c #3688AE",
"8.	c #0088D0",
"9.	c #0087CD",
"0.	c #34A4D6",
"a.	c #3A8EBA",
"b.	c #8CBFDE",
"c.	c #167AAC",
"d.	c #2C9EDC",
"e.	c #4B93B9",
"f.	c #047EBD",
"g.	c #008BCC",
"h.	c #0383CA",
"i.	c #88C4E0",
"j.	c #D4E8EF",
"k.	c #53B1E4",
"l.	c #84B1C6",
"m.	c #0079C2",
"n.	c #34A3DA",
"o.	c #3B8EBA",
"p.	c #93C3DA",
"q.	c #157BAC",
"r.	c #32A3DD",
"s.	c #3C8FB9",
"t.	c #0388CD",
"u.	c #008ACB",
"v.	c #D6E9F0",
"w.	c #4EA8DA",
"x.	c #9ECEE4",
"y.	c #368CBB",
"z.	c #0080CC",
"A.	c #36A5DD",
"B.	c #3D8FB7",
"C.	c #55A4CB",
"D.	c #0B78B0",
"E.	c #34A6DC",
"F.	c #4090B5",
"G.	c #017FC9",
"H.	c #0387CF",
"I.	c #0084CE",
"J.	c #46A6D9",
"K.	c #FFFDFE",
"L.	c #E2F1F8",
"M.	c #309FD6",
"N.	c #B2D3E6",
"O.	c #3494C6",
"P.	c #0A83BC",
"Q.	c #0081CC",
"R.	c #0285CD",
"S.	c #088DCE",
"T.	c #249CD8",
"U.	c #5DAED9",
"V.	c #0882C1",
"W.	c #E2EFF5",
"X.	c #FCFFFF",
"Y.	c #C2E0EB",
"Z.	c #30A2D8",
"`.	c #A1CFE7",
" +	c #7EBDDC",
".+	c #329FD7",
"++	c #1693D3",
"@+	c #1294D2",
"#+	c #2B9ED7",
"$+	c #72BDE5",
"%+	c #A5C8DC",
"&+	c #4C8BAE",
"*+	c #BFDAE5",
"=+	c #4FABDA",
"-+	c #5BAFDB",
";+	c #87C2E2",
">+	c #8FC5E1",
",+	c #92C4DD",
"'+	c #89B6D3",
")+	c #669FBD",
"!+	c #5799BC",
"~+	c #D9EAF2",
"{+	c #FDFFFC",
"]+	c #D3E7F2",
"^+	c #86C1E1",
"/+	c #5FADD1",
"(+	c #61A9CF",
"_+	c #86BCD8",
":+	c #D0E4ED",
"  .   + @ # $ % & * = - ; . > ; ",
". + . , ' ) ! ~ { ] ^ / (   _ : ",
"< _ [ } | 1 2 3 4 5 6 7 8 9 .   ",
"_ 0 a b c d e f g h i j k l m @ ",
"; n o p q r s t u v w x y z A + ",
"B C D E F G H I J K L M N O P Q ",
"R S T U z V W X Y Z `  ...+.U @.",
"#.$.%.&.*.=.-.;.>.,.'.).!.~.{.].",
"^./.(._.U :.<.[.}.|.1.2._.3.{.4.",
"5.6.7.8.9.0.a.b.c.d.e.f.!.g.h.i.",
"j.k.l.m.x n.o.p.q.r.s.)._.t.u.v.",
"  w.x.y.z.A.B.C.D.E.F.G.H.I.J.K.",
"_ L.M.N.O.t.P.Q.R.S.f.T.U.V.W.+ ",
"; X.Y.Z.`. +.+++@+#+$+%+&+*+    ",
"; ; + , =+-+;+>+,+'+)+!+~+_ . + ",
"  {++ ;   ]+^+/+(+_+:+.     <   "};
