/* XPM */
static char * D:\Crypto\001_NIX_COIN\NYX Photo\NYX Photo_V3\pixmaps\nyx32_xpm[] = {
"32 32 595 2",
"  	c #FFFFFB",
". 	c #FFFFFF",
"+ 	c #FFFFFD",
"@ 	c #FEFFFD",
"# 	c #FEFFFF",
"$ 	c #FFFEFF",
"% 	c #FFFEFC",
"& 	c #FBF6FA",
"* 	c #E8ECEF",
"= 	c #D1E0E7",
"- 	c #C0D6E4",
"; 	c #BFD7E1",
"> 	c #D0DEE7",
", 	c #E8E9EB",
"' 	c #FEF5F6",
") 	c #FDFFFE",
"! 	c #FFFEFD",
"~ 	c #FCFFFF",
"{ 	c #FEFEFC",
"] 	c #FEFFFB",
"^ 	c #FCFBF9",
"/ 	c #D2E1E8",
"( 	c #81BDD7",
"_ 	c #3E9FD2",
": 	c #168ECD",
"< 	c #0289C9",
"[ 	c #0087C9",
"} 	c #0185CD",
"| 	c #0289CB",
"1 	c #128ECA",
"2 	c #399DD1",
"3 	c #7ABBDB",
"4 	c #CFDDE8",
"5 	c #FBFBFB",
"6 	c #FDFEFF",
"7 	c #FEFDFB",
"8 	c #C7DBE4",
"9 	c #4EA5D2",
"0 	c #0383CC",
"a 	c #0285CD",
"b 	c #33A0D9",
"c 	c #75C0E7",
"d 	c #A5D8F3",
"e 	c #BEE2FA",
"f 	c #C1E4F7",
"g 	c #ADDBF2",
"h 	c #82C9E9",
"i 	c #47A8DB",
"j 	c #0B88C8",
"k 	c #0181C8",
"l 	c #43A3D6",
"m 	c #BED8E5",
"n 	c #FFFCF9",
"o 	c #FFFDFF",
"p 	c #F3F3F1",
"q 	c #73B5D5",
"r 	c #0082CA",
"s 	c #0C8DCF",
"t 	c #7EC2E9",
"u 	c #E6F7FF",
"v 	c #EEEDE9",
"w 	c #CCD3DD",
"x 	c #B3C7D0",
"y 	c #B0C6D3",
"z 	c #C2D3DD",
"A 	c #E4E9EF",
"B 	c #F7FBFC",
"C 	c #A5D1EC",
"D 	c #2992C9",
"E 	c #027EC6",
"F 	c #69B2DB",
"G 	c #EEF0EF",
"H 	c #E4E8EB",
"I 	c #409ED1",
"J 	c #007FCA",
"K 	c #60B4E0",
"L 	c #EEFCFF",
"M 	c #F7F6F4",
"N 	c #96ADBB",
"O 	c #38779A",
"P 	c #086A99",
"Q 	c #016BA7",
"R 	c #0073B4",
"S 	c #0078B7",
"T 	c #0079BC",
"U 	c #027EBE",
"V 	c #278FC4",
"W 	c #74B4D8",
"X 	c #DBEEF5",
"Y 	c #FEFEFE",
"Z 	c #91C0DA",
"` 	c #0279BB",
" .	c #329ACF",
"..	c #DBE6EA",
"+.	c #FEFEFF",
"@.	c #2D9AD2",
"#.	c #9AD1EF",
"$.	c #FBFFFC",
"%.	c #9CB3C1",
"&.	c #1C6087",
"*.	c #00609A",
"=.	c #007CBF",
"-.	c #008AD2",
";.	c #028BD3",
">.	c #008BCE",
",.	c #008ACD",
"'.	c #008BD0",
").	c #0087CD",
"!.	c #0081C9",
"~.	c #0686C7",
"{.	c #6EBADE",
"].	c #F9FDFF",
"^.	c #2283BA",
"/.	c #2794CD",
"(.	c #DDE5E8",
"_.	c #F4F3F1",
":.	c #3CA0D1",
"<.	c #007FCC",
"[.	c #ACDBED",
"}.	c #FFFDFA",
"|.	c #59879F",
"1.	c #005083",
"2.	c #017BBC",
"3.	c #008DD3",
"4.	c #0084C9",
"5.	c #0083CD",
"6.	c #0383CE",
"7.	c #0282CB",
"8.	c #0083CB",
"9.	c #0181CA",
"0.	c #0089CC",
"a.	c #0088D0",
"b.	c #0080C9",
"c.	c #299AD4",
"d.	c #DDF1FC",
"e.	c #87A4B4",
"f.	c #005C97",
"g.	c #349FD3",
"h.	c #EEEFF1",
"i.	c #75B5D9",
"j.	c #007BC9",
"k.	c #92CFEE",
"l.	c #FFFEFB",
"m.	c #447998",
"n.	c #01548A",
"o.	c #0089CE",
"p.	c #319ED6",
"q.	c #A0D2ED",
"r.	c #9FD1EA",
"s.	c #9CCFEA",
"t.	c #9DCFE6",
"u.	c #9ED0E9",
"v.	c #9DCFE8",
"w.	c #96CCE8",
"x.	c #9FD2EF",
"y.	c #4AA7D3",
"z.	c #027CC5",
"A.	c #0089CF",
"B.	c #0A8FD0",
"C.	c #0677AF",
"D.	c #0079B8",
"E.	c #67B1D8",
"F.	c #FCFBF7",
"G.	c #0581CB",
"H.	c #47ABDC",
"I.	c #6390A5",
"J.	c #024F83",
"K.	c #027CC7",
"L.	c #5EB6E4",
"M.	c #ADCADA",
"N.	c #3F759B",
"O.	c #3D88AF",
"P.	c #3E88AF",
"Q.	c #397EA8",
"R.	c #A4C3D5",
"S.	c #667D85",
"T.	c #00598B",
"U.	c #008DD5",
"V.	c #0088CC",
"W.	c #0187CE",
"X.	c #008ACF",
"Y.	c #0287C8",
"Z.	c #0288CF",
"`.	c #B9D6E4",
" +	c #FEFBF6",
".+	c #4CA7D3",
"++	c #0086CD",
"@+	c #E3F4FC",
"#+	c #B5C9D2",
"$+	c #004978",
"%+	c #0081C2",
"&+	c #0088CE",
"*+	c #65B8E0",
"=+	c #43A3D5",
"-+	c #54B0DF",
";+	c #82B1CB",
">+	c #005A8F",
",+	c #0088D2",
"'+	c #0084CC",
")+	c #027DCB",
"!+	c #40A9D8",
"~+	c #FCFDFF",
"{+	c #ABB8C1",
"]+	c #3D5E6F",
"^+	c #026197",
"/+	c #008DD2",
"(+	c #0089CA",
"_+	c #0289CD",
":+	c #44A4D4",
"<+	c #FAF9F4",
"[+	c #FFFDFE",
"}+	c #D4E0EC",
"|+	c #0184CC",
"1+	c #5BB3E1",
"2+	c #2A6784",
"3+	c #0068A5",
"4+	c #008CD4",
"5+	c #0085CA",
"6+	c #3DA5DA",
"7+	c #C0E1F4",
"8+	c #CDE1EA",
"9+	c #70A2B9",
"0+	c #015A96",
"a+	c #0384C8",
"b+	c #2B9ED7",
"c+	c #FAFEFD",
"d+	c #94B5C6",
"e+	c #3C6B85",
"f+	c #6A98AF",
"g+	c #00649F",
"h+	c #028BCF",
"i+	c #0388CD",
"j+	c #C5DCE4",
"k+	c #85BEDB",
"l+	c #017FCC",
"m+	c #CAECF8",
"n+	c #BDCBD8",
"o+	c #004D79",
"p+	c #0086C8",
"q+	c #0381CB",
"r+	c #0787CE",
"s+	c #98D1EC",
"t+	c #DCE6E7",
"u+	c #5595B8",
"v+	c #007FC8",
"w+	c #1491D1",
"x+	c #E4F5FD",
"y+	c #C0D1DB",
"z+	c #00456F",
"A+	c #5CA6CB",
"B+	c #89B3CC",
"C+	c #01619B",
"D+	c #008DD1",
"E+	c #0188CA",
"F+	c #0089CD",
"G+	c #78B8DB",
"H+	c #FDF8F5",
"I+	c #0F91CF",
"J+	c #5D8BA2",
"K+	c #025D94",
"L+	c #0188CC",
"M+	c #008ACB",
"N+	c #4DAFDE",
"O+	c #AECDE1",
"P+	c #AFCBD9",
"Q+	c #9FC9DF",
"R+	c #BDDAEC",
"S+	c #D1DBE4",
"T+	c #145478",
"U+	c #0165A3",
"V+	c #61BEE9",
"W+	c #84AEC7",
"X+	c #016299",
"Y+	c #0183CE",
"Z+	c #3B9FD1",
"`+	c #E9EDEC",
" @	c #1794CE",
".@	c #41A9DC",
"+@	c #256686",
"@@	c #0071B0",
"#@	c #008CD3",
"$@	c #5FB7E5",
"%@	c #80B0C7",
"&@	c #005993",
"*@	c #90CFEE",
"=@	c #819EAE",
"-@	c #005D91",
";@	c #0082CE",
">@	c #5FBAE6",
",@	c #82AFC2",
"'@	c #006198",
")@	c #028DD2",
"!@	c #0087CF",
"~@	c #0287CC",
"{@	c #0087CB",
"]@	c #1991CD",
"^@	c #E1E9EB",
"/@	c #D5E0E6",
"(@	c #6ABFE6",
"_@	c #09587F",
":@	c #007DBD",
"<@	c #0382C9",
"[@	c #5CB7E4",
"}@	c #85B5CB",
"|@	c #025893",
"1@	c #4FB3E4",
"2@	c #F5F5F5",
"3@	c #B1C7D2",
"4@	c #B8D5E7",
"5@	c #248DC7",
"6@	c #53B2E2",
"7@	c #85AFC8",
"8@	c #03629C",
"9@	c #008AD1",
"0@	c #098DCE",
"a@	c #C6DCE7",
"b@	c #C3D9E4",
"c@	c #0085CC",
"d@	c #81C7E9",
"e@	c #E7E8EA",
"f@	c #03547F",
"g@	c #0084C5",
"h@	c #008BC9",
"i@	c #0081CD",
"j@	c #86B3CA",
"k@	c #5CB8E7",
"l@	c #F2F2F2",
"m@	c #035680",
"n@	c #5DACD5",
"o@	c #C7E5F0",
"p@	c #BEDBEB",
"q@	c #6EA0B7",
"r@	c #005D97",
"s@	c #028DD0",
"t@	c #0088CB",
"u@	c #BAD4E1",
"v@	c #C3D9E6",
"w@	c #80C6E8",
"x@	c #E6EAEB",
"y@	c #035682",
"z@	c #0083C7",
"A@	c #5EB7E3",
"B@	c #85B4C8",
"C@	c #005A93",
"D@	c #F4F4F4",
"E@	c #0E5C83",
"F@	c #007CC1",
"G@	c #1791D0",
"H@	c #AFD9EF",
"I@	c #CFDAE0",
"J@	c #3988AF",
"K@	c #B8D4E0",
"L@	c #D2E0E9",
"M@	c #0487CB",
"N@	c #68BBE5",
"O@	c #F8F4F5",
"P@	c #0D5C83",
"Q@	c #0180C5",
"R@	c #018AD0",
"S@	c #0186CB",
"T@	c #0081CC",
"U@	c #5EB6E6",
"V@	c #86B2CB",
"W@	c #005995",
"X@	c #F5F4F2",
"Y@	c #0F5C86",
"Z@	c #0082C6",
"`@	c #0082C8",
" #	c #4FB1E0",
".#	c #BBD6E1",
"+#	c #B9D1DD",
"@#	c #2A7DA9",
"##	c #0080C1",
"$#	c #098CD0",
"%#	c #C5DBE6",
"&#	c #EAEBED",
"*#	c #1691CD",
"=#	c #3BA6DA",
"-#	c #2B6D8F",
";#	c #0077B9",
">#	c #028BD1",
",#	c #0282C9",
"'#	c #83B3C9",
")#	c #005892",
"!#	c #5EB9E6",
"~#	c #F4F2F3",
"{#	c #0C5B84",
"]#	c #0083C4",
"^#	c #0084CE",
"/#	c #7CABC5",
"(#	c #036197",
"_#	c #0775B0",
":#	c #0181C2",
"<#	c #1792CE",
"[#	c #E2E7EB",
"}#	c #FEF9F6",
"|#	c #3EA2D3",
"1#	c #0A8ECE",
"2#	c #6895A8",
"3#	c #0168A3",
"4#	c #008DD4",
"5#	c #0082CC",
"6#	c #5CB4E2",
"7#	c #86B3C8",
"8#	c #5DB8E7",
"9#	c #F3F3F5",
"0#	c #0E5B85",
"a#	c #0081C3",
"b#	c #60B7E2",
"c#	c #81AFBF",
"d#	c #005F9B",
"e#	c #018FD7",
"f#	c #0086CA",
"g#	c #3A9FD3",
"h#	c #F9F5F4",
"i#	c #84C0DC",
"j#	c #017CCA",
"k#	c #BEE4F7",
"l#	c #CDD4DC",
"m#	c #005C8F",
"n#	c #0089D2",
"o#	c #5DB5E3",
"p#	c #87B3CC",
"q#	c #015794",
"r#	c #F2F4F1",
"s#	c #0083CA",
"t#	c #61B9E7",
"u#	c #81ADC6",
"v#	c #01609A",
"w#	c #008DCF",
"x#	c #0286CE",
"y#	c #76B6D9",
"z#	c #FDFDFD",
"A#	c #D2DEEA",
"B#	c #0484CB",
"C#	c #4AACDB",
"D#	c #387796",
"E#	c #0077BB",
"F#	c #008CD0",
"G#	c #85B3CA",
"H#	c #61B9E9",
"I#	c #0B5D83",
"J#	c #0281C6",
"K#	c #87ACC6",
"L#	c #006196",
"M#	c #028CD4",
"N#	c #C4DBE3",
"O#	c #FBFAF6",
"P#	c #D1EDFB",
"Q#	c #CDD8DE",
"R#	c #006293",
"S#	c #60BBE8",
"T#	c #F8F3EF",
"U#	c #0B597F",
"V#	c #0081C5",
"W#	c #0082CD",
"X#	c #60B9E1",
"Y#	c #82AFC4",
"Z#	c #00629D",
"`#	c #42A2D2",
" $	c #F9FAF4",
".$	c #C2DAE6",
"+$	c #0484CD",
"@$	c #36A1D9",
"#$	c #81A7BE",
"$$	c #016AAB",
"%$	c #62B8E7",
"&$	c #90B6C9",
"*$	c #005C95",
"=$	c #1398D9",
"-$	c #439AC7",
";$	c #005F8F",
">$	c #0083C9",
",$	c #66BAE6",
"'$	c #89B2C4",
")$	c #B7D2E3",
"!$	c #FEFDF9",
"~$	c #70B6D8",
"{$	c #007BC8",
"]$	c #77BFE7",
"^$	c #659BB3",
"/$	c #0172B6",
"($	c #35A2DA",
"_$	c #4B9AC5",
":$	c #026398",
"<$	c #0282CD",
"[$	c #36A4D9",
"}$	c #4896BD",
"|$	c #00679E",
"1$	c #018BD3",
"2$	c #1F9AD5",
"3$	c #1391CE",
"4$	c #61B0D7",
"5$	c #FFF8F7",
"6$	c #F4F0EF",
"7$	c #027CC9",
"8$	c #8CCCE8",
"9$	c #7CAAC2",
"0$	c #007AB6",
"a$	c #0084CF",
"b$	c #0083C8",
"c$	c #0086C6",
"d$	c #018BCC",
"e$	c #0286D0",
"f$	c #0081C7",
"g$	c #F4FEFF",
"h$	c #8DB3CA",
"i$	c #0062A3",
"j$	c #329DD3",
"k$	c #EDEFEE",
"l$	c #2C99D2",
"m$	c #78C0E6",
"n$	c #C2D6E1",
"o$	c #3793C4",
"p$	c #007FC4",
"q$	c #0086CF",
"r$	c #1B93CF",
"s$	c #92CDEF",
"t$	c #11557C",
"u$	c #2380AC",
"v$	c #D6E6E6",
"w$	c #E1E6EC",
"x$	c #3D9FD0",
"y$	c #007DCA",
"z$	c #3DA2D8",
"A$	c #D2ECF9",
"B$	c #FFFFFA",
"C$	c #BBDBE8",
"D$	c #5DAFD5",
"E$	c #2296D3",
"F$	c #088BCF",
"G$	c #0285CB",
"H$	c #1793D3",
"I$	c #9CD4EF",
"J$	c #F8FDFF",
"K$	c #F2F2F4",
"L$	c #6C95A9",
"M$	c #014C85",
"N$	c #308BBA",
"O$	c #D7E6ED",
"P$	c #F1EFF0",
"Q$	c #70B4D9",
"R$	c #0080C7",
"S$	c #57AFDD",
"T$	c #C6E2F0",
"U$	c #FFFCFB",
"V$	c #EBF6FC",
"W$	c #DBEEFC",
"X$	c #D7EDFB",
"Y$	c #E7F5FE",
"Z$	c #FAFEFF",
"`$	c #FFFCFC",
" %	c #DAE2E4",
".%	c #7BA2B3",
"+%	c #0C5F8B",
"@%	c #62AED2",
"#%	c #EFF0F2",
"$%	c #FDFCF8",
"%%	c #C1D7E5",
"&%	c #4BA8D4",
"*%	c #017DC7",
"=%	c #158BC9",
"-%	c #4CA0CC",
";%	c #7AB3CE",
">%	c #93BCD0",
",%	c #95BBCE",
"'%	c #83AEC1",
")%	c #5D92B2",
"!%	c #2477A1",
"~%	c #016098",
"{%	c #429DCC",
"]%	c #B8D8E7",
"^%	c #FFFBF8",
"/%	c #FBF9FA",
"(%	c #CDDDEA",
"_%	c #80BBDB",
":%	c #148ECF",
"<%	c #017CC0",
"[%	c #007CBE",
"}%	c #007DC0",
"|%	c #0F85C2",
"1%	c #369ACE",
"2%	c #79BBDD",
"3%	c #C6DEE8",
"4%	c #FDF8FC",
"5%	c #FEFFFA",
"6%	c #F8F8F8",
"7%	c #E7EBEC",
"8%	c #CFDEE5",
"9%	c #BDD7E6",
"0%	c #C0D7E5",
"a%	c #CDDFEB",
"b%	c #E5EAEE",
"c%	c #F8F7F5",
"d%	c #FDFFFC",
"  . . + @ # . $ . @ . % & * = - ; > , ' ) @ $ + ! # ~ $ { $ . ] ",
"# . + + . $ $ @ $ ^ / ( _ : < [ } | 1 2 3 4 5 $ # $ @ + + + ) . ",
"6 @ + . # $ . 7 8 9 0 a b c d e f g h i j k l m n . ! 6 # o . $ ",
". $ # . + . p q r s t u . v w x y z A n B C D E F G . $ + # $ + ",
"+ + + @ $ H I J K L M N O P Q R S T U V W X Y Z `  ...+.@ ] # . ",
". . + . H @.r #.$.%.&.*.=.-.;.>.,.'.'.).!.~.{.]./ ^./.(.. $ + . ",
"# $ Y _.:.<.[.}.|.1.2.3.4.5.r 6.7.8.8.9.0.a.b.c.d.e.f.g.h.# # $ ",
". # n i.j.k.l.m.n.[ o.p.q.r.s.t.u.v.w.x.y.z.A.8.B.C.D.8.E.F.$ . ",
"@ # 8 G.H.# I.J.o.} K.L.M.N.O.P.O.Q.R.. S.T.U.V.W.>.X.Y.Z.`.. $ ",
"#  +.+++@+#+$+%+&+*+=+-+;+>+,+'+)+!+~+{+]+^+/+&+W.(+V._+8.:+<+[+",
"+ }+|+1+$ 2+3+4+5+6+7+8+9+0+'.a+b+c+d+e+f+g+h+X.(+V._+V.i+_+j+. ",
"% k+l+m+n+o+p+_+A.q+r+s+t+u+v+w+x+y+z+A+B+C+D+V.(+o.W.E+F+8.G+) ",
"H+=+I+@ J+K+h+0.L+M+8.N+O+P+Q+R+S+T+U+V+W+X+D+_+E+0.V.F+V.Y+Z+M ",
"`+ @.@+ +@@@#@V.A.0.!.$@%@&@*@] =@-@;@>@,@'@)@!@~@{@L+)._+).]@^@",
"/@i+(@_._@:@'.W.{@V.<@[@}@|@1@2@3@4@5@6@7@8@9@X.V.W.L+V.L+(+0@a@",
"b@c@d@e@f@g@h@L+F+(+i@L.j@&@k@l@m@n@o@p@q@r@s@(+t@| V.L+L+X.| u@",
"v@p+w@x@y@z@W.V.V.V.9.A@B@C@[@D@E@F@G@H@I@J@,+,.L+E+&+E+L+V._+K@",
"L@M@N@O@P@Q@R@).S@W.T@U@V@W@$@X@Y@Z@`@ #.#+#@###,.V.&+(+L+[ $#%#",
"&#*#=## -#;#>#(+F+[ ,#L.'#)#!#~#{#]#^#$@/#(#_#:#F+L+L+o._+V.<#[#",
"}#|#1#6 2#3#4#L+E+F+5#6#7#)#8#9#0#a#q+b#c#d#e#o.E+L+L+F+f#'+g#h#",
"{ i#j#k#l#m#n#| &+V.`@o#p#q#!#r#E@]#s#t#u#v#w#F+(+A.x#E+0.5.y#z#",
"$ A#B#C#. D#E#F#V.V.r [@G#|@H#9#I#J#5.$@K#L#M#V.(+o.L+{@~@&+N#. ",
"# O#y.9.P#Q#R#R@_+A.r $@G#W@S#T#U#V#W#X#Y#Z#M#_+_+V.V.A.r `# $[+",
"  $ .$+$@$@ #$$$4+V.7.%$&$*$=$-$;${@>$,$'$v##@F+'+S@,.E+x#)$@ . ",
". . !$~${$]$# ^$/$X.} ($_$:$'.<$_+(+'+[$}$|$1$8.2$3$W.r 4$5$@ $ ",
". + # 6$:.7$8$@ 9$0$a$&+b$c$&+o.,.++d$e$Z@f$5.i g$h$i$j$k$# ) # ",
". $ ) + [#l$j#m$. n$o$p$>$q$[ V.a.V.[ `@9.r$s$  x t$u$v$$ . [+# ",
"# $ $ . # w$x$y$z$A$B$C$D$E$F$'+G$M+H$i I$J$K$L$M$N$O$$ . { + . ",
"+ . . ] . $ P$Q$8.R$S$T$U$$ V$W$X$Y$Z$`$ %.%+%Z#@%#%+ o . $ . @ ",
"# . o + . Y . $%%%&%`@*%=%-%;%>%,%'%)%!%~%$${%]%^%.   . + # $ . ",
". $ + # o . + Y # /%(%_%Z+:%z@<%[%}%|%1%2%3%4%{ @ $ $ 5%6 . { . ",
". . # + # . . . $ . + { 6%7%8%9%0%a%b%c%7 $ d%$ . . # . $ Y + Y "};
